<?xml version="1.0" encoding="UTF-8" standalone="no"?>
<!-- Created with Inkscape (http://www.inkscape.org/) -->

<svg
   xmlns:svg="http://www.w3.org/2000/svg"
   xmlns="http://www.w3.org/2000/svg"
   xmlns:xlink="http://www.w3.org/1999/xlink"
   version="1.1"
   width="286.77704"
   height="185.67516"
   id="svg6731">
  <defs
     id="defs6733">
    <radialGradient
       cx="1231.376"
       cy="942.25555"
       r="88.842659"
       fx="1231.376"
       fy="942.25555"
       id="radialGradient6654"
       xlink:href="#linearGradient6065"
       gradientUnits="userSpaceOnUse"
       gradientTransform="matrix(1,0,0,0.95451947,0,42.854283)" />
    <linearGradient
       id="linearGradient6065">
      <stop
         id="stop6067"
         style="stop-color:#0022fb;stop-opacity:1"
         offset="0" />
      <stop
         id="stop6069"
         style="stop-color:#0b2222;stop-opacity:1"
         offset="1" />
    </linearGradient>
    <linearGradient
       x1="1181.2522"
       y1="947.06158"
       x2="1301.8759"
       y2="947.06158"
       id="linearGradient6662"
       xlink:href="#linearGradient6059"
       gradientUnits="userSpaceOnUse" />
    <linearGradient
       id="linearGradient6059">
      <stop
         id="stop6061"
         style="stop-color:#47b831;stop-opacity:1"
         offset="0" />
      <stop
         id="stop6063"
         style="stop-color:#d08500;stop-opacity:1"
         offset="1" />
    </linearGradient>
    <linearGradient
       x1="1181.2522"
       y1="947.06158"
       x2="1301.8759"
       y2="947.06158"
       id="linearGradient6656"
       xlink:href="#linearGradient6059"
       gradientUnits="userSpaceOnUse" />
    <linearGradient
       id="linearGradient6698">
      <stop
         id="stop6700"
         style="stop-color:#47b831;stop-opacity:1"
         offset="0" />
      <stop
         id="stop6702"
         style="stop-color:#d08500;stop-opacity:1"
         offset="1" />
    </linearGradient>
    <linearGradient
       x1="1181.2522"
       y1="947.06158"
       x2="1301.8759"
       y2="947.06158"
       id="linearGradient6658"
       xlink:href="#linearGradient6059"
       gradientUnits="userSpaceOnUse" />
    <linearGradient
       id="linearGradient6705">
      <stop
         id="stop6707"
         style="stop-color:#47b831;stop-opacity:1"
         offset="0" />
      <stop
         id="stop6709"
         style="stop-color:#d08500;stop-opacity:1"
         offset="1" />
    </linearGradient>
    <linearGradient
       x1="1181.2522"
       y1="947.06158"
       x2="1301.8759"
       y2="947.06158"
       id="linearGradient6660"
       xlink:href="#linearGradient6059"
       gradientUnits="userSpaceOnUse" />
    <linearGradient
       id="linearGradient6712">
      <stop
         id="stop6714"
         style="stop-color:#47b831;stop-opacity:1"
         offset="0" />
      <stop
         id="stop6716"
         style="stop-color:#d08500;stop-opacity:1"
         offset="1" />
    </linearGradient>
    <radialGradient
       cx="930.76398"
       cy="966.61139"
       r="60.467705"
       fx="930.76398"
       fy="966.61139"
       id="radialGradient6675"
       xlink:href="#linearGradient6669"
       gradientUnits="userSpaceOnUse"
       gradientTransform="matrix(0.00606869,1.0044905,-2.3684201,0.01430895,3254.4234,197.06722)" />
    <linearGradient
       id="linearGradient6669">
      <stop
         id="stop6671"
         style="stop-color:#e3690b;stop-opacity:1"
         offset="0" />
      <stop
         id="stop6673"
         style="stop-color:#fff09c;stop-opacity:0.99159664"
         offset="1" />
    </linearGradient>
    <radialGradient
       cx="930.76398"
       cy="966.61139"
       r="60.467705"
       fx="930.76398"
       fy="966.61139"
       id="radialGradient6729"
       xlink:href="#linearGradient6669"
       gradientUnits="userSpaceOnUse"
       gradientTransform="matrix(0.00606869,1.0044905,-2.3684201,0.01430895,2690.466,-373.25933)" />
  </defs>
  <g
     transform="translate(-268.04005,-405.23889)"
     id="layer1">
    <path
       d="m 407.84669,586.07345 c -40.629,-78.5479 -134.84738,-55.493 -134.96588,-75.1069 -0.11849,-19.6139 61.81538,-35.8889 138.33318,-36.3511 76.5179,-0.4623 138.6439,15.0631 138.7624,34.677 0.1185,19.6139 -94.396,-6.3414 -142.1297,76.781 z"
       id="path6666"
       style="fill:url(#radialGradient6729);fill-opacity:1;stroke:#d4aa00;stroke-width:9.68118382;stroke-linecap:round;stroke-linejoin:round;stroke-miterlimit:4;stroke-opacity:1" />
    <g
       transform="matrix(0.74141647,0,0,0.79251576,-502.12251,-276.65937)"
       id="g6073">
      <path
         d="m 1315.2186,942.25555 a 83.842659,79.802048 0 1 1 -167.6853,0 83.842659,79.802048 0 1 1 167.6853,0 z"
         id="path6034"
         style="fill:url(#radialGradient6654);fill-opacity:1;stroke:#26000c;stroke-width:4.19999981;stroke-linecap:round;stroke-linejoin:round;stroke-miterlimit:4;stroke-opacity:1;stroke-dasharray:none" />
      <g
         id="g6046"
         style="fill:url(#linearGradient6662);fill-opacity:1;stroke:#552200;stroke-width:2.9000001;stroke-miterlimit:4;stroke-opacity:0.6197183;stroke-dasharray:none">
        <path
           d="m 1260.6704,1011.9561 c 2.6815,-1.8814 2.0203,-3.2428 2.0203,-6.0609 0,-0.6735 -0.3012,-1.418 0,-2.0203 0.4259,-0.8519 1.5944,-1.1685 2.0203,-2.0203 0.6023,-1.2047 -0.6024,-2.83598 0,-4.04065 0.4259,-0.85184 1.5944,-1.16847 2.0203,-2.02031 0.3012,-0.60234 -0.4762,-1.54411 0,-2.0203 0.4762,-0.4762 1.5441,0.47619 2.0203,0 0.6868,-0.68685 -0.6869,-3.35377 0,-4.04062 0.4762,-0.47619 1.5441,0.4762 2.0203,0 0.4762,-0.47619 0,-1.34687 0,-2.0203 0,-1.62642 0.4227,-6.81317 0,-8.08122 -0.4762,-1.42857 -1.3469,-2.69374 -2.0203,-4.04061 -0.6734,-1.34687 -1.185,-2.78767 -2.0203,-4.04061 -1.0566,-1.58486 -3.1888,-2.33694 -4.0406,-4.04061 -0.3012,-0.60234 0,-1.34687 0,-2.02031 0,-1.34687 0.4259,-2.76285 0,-4.04061 -0.3012,-0.9035 -1.492,-1.22787 -2.0203,-2.0203 -0.8353,-1.25294 -0.9555,-2.97582 -2.0203,-4.04061 -4.4119,-4.41189 -3.2802,-0.41996 -8.0812,-2.02031 -0.9036,-0.30117 -1.1168,-1.71913 -2.0204,-2.0203 -1.2777,-0.42592 -2.7628,0.42592 -4.0406,0 -7.4895,-2.4965 2.4627,-2.02031 -4.0406,-2.02031 -0.6734,0 -2.0203,0.67344 -2.0203,0 0,-0.67343 1.5441,0.47619 2.0203,0 0.4762,-0.47619 0,-1.34687 0,-2.0203 0,-4.04061 0,-8.08122 0,-12.12183 0,-0.67344 0.3012,-1.41797 0,-2.02031 -0.4259,-0.85183 -1.5944,-1.16847 -2.0203,-2.0203 -0.3011,-0.60234 0.4762,-1.54412 0,-2.02031 -0.9524,-0.95238 -2.8359,0.60234 -4.0406,0 -0.8518,-0.42592 -1.1685,-1.59439 -2.0203,-2.0203 -0.801,-0.40052 -5.6479,0.41302 -6.0609,0 -0.4762,-0.47619 0.4762,-1.54412 0,-2.02031 -0.4762,-0.47619 -1.3469,0 -2.0203,0 -1.3469,0 -2.6938,0 -4.0406,0 -3.9961,0 -8.1258,0 -12.1219,0 -4.8268,0 -7.6898,-0.63887 -12.1218,2.02031 -1.6333,0.97999 -2.3369,3.18877 -4.0406,4.04061 -1.2047,0.60234 -2.7629,-0.42592 -4.0406,0 -0.9035,0.30117 -1.1685,1.59438 -2.0203,2.0203 -0.6024,0.30117 -1.5441,-0.47619 -2.0203,0 -0.4762,0.47619 0,1.34687 0,2.02031 0,3.87385 -0.9128,3.12784 2.0203,6.06091 2.6937,2.69374 5.3875,5.38748 8.0812,8.08122 1.3469,1.34687 2.5168,2.89776 4.0406,4.04061 2.4094,1.80702 5.5754,2.37003 8.0812,4.04061 4.0024,-0.20167 0.9555,2.97582 2.0203,4.04061 0.4762,0.47619 1.5442,-0.47619 2.0203,0 0.4762,0.47619 0,1.34687 0,2.02031 0,0.67343 0,1.34687 0,2.0203 0,1.05646 0.2657,7.55 0,8.08122 -0.4259,0.85184 -1.5943,1.16847 -2.0203,2.02031 -0.3011,0.60234 0.3012,1.41797 0,2.0203 -0.1933,0.38673 -7.6944,7.88786 -8.0812,8.08122 -0.6023,0.30117 -1.5441,-0.47619 -2.0203,0 -0.4762,0.4762 0.4762,1.54412 0,2.02031 -0.4762,0.47619 -1.5441,-0.47619 -2.0203,0 -0.4762,0.47619 0,1.34687 0,2.0203 0,0.67344 -0.4762,1.54412 0,2.02031 0.4762,0.47619 1.5441,-0.47619 2.0203,0 0.413,0.41302 -0.4005,5.25988 0,6.06092 0.4259,0.85183 1.5944,1.16846 2.0203,2.0203 0.6024,1.20465 -0.9524,3.08825 0,4.04065 0.4762,0.4762 1.5441,-0.4762 2.0203,0 0.4762,0.4762 -0.3011,1.4179 0,2.0203 0.4259,0.8518 1.3469,1.3468 2.0203,2.0203 0.6735,0.6734 1.3469,1.3468 2.0203,2.0203 0.6735,0.6734 1.3469,1.3468 2.0203,2.0203 0.6735,0.6734 2.6938,1.3469 2.0203,2.0203 -0.6734,0.6734 -2.6937,-2.6938 -2.0203,-2.0203 1.3469,1.3469 2.4558,2.984 4.0407,4.0406 0.5603,0.3735 1.4179,-0.3012 2.0203,0 6.7005,6.7005 -1.9048,-0.9524 4.0406,2.0203 0.8518,0.4259 1.1684,1.5944 2.0203,2.0203 0.6023,0.3012 1.4179,-0.3012 2.0203,0 0.8518,0.4259 1.1684,1.5944 2.0203,2.0203 1.2047,0.6023 2.8359,-0.6023 4.0406,0 0.8518,0.4259 1.0679,2.0203 2.0203,2.0203 0.6734,0 -0.6734,-2.0203 0,-2.0203 0.6734,0 -0.4762,1.5441 0,2.0203 0.4762,0.4762 1.5441,0.4762 2.0203,0 0.4762,-0.4762 -0.4762,-1.5441 0,-2.0203 0.065,-0.065 5.5709,0 6.0609,0 0.6735,0 1.3469,0 2.0203,0 0.6735,0 2.0203,-0.6734 2.0203,0 0,0.6734 -2.4965,0.4762 -2.0203,0 1.0648,-1.0648 2.6121,-1.5441 4.0406,-2.0203 2.6342,-0.8781 5.3875,-1.3469 16.1625,-8.0812 z"
           id="path6040"
           style="fill:url(#linearGradient6656);fill-opacity:1;stroke:#552200;stroke-width:2.9000001;stroke-linecap:butt;stroke-linejoin:miter;stroke-miterlimit:4;stroke-opacity:0.6197183;stroke-dasharray:none" />
        <path
           d="m 1256.6298,882.65656 c 0.3122,1.61197 -0.4669,9.16788 0,10.10152 0.4259,0.85184 1.5944,1.16847 2.0203,2.02031 0.6023,1.20467 -0.6024,2.83593 0,4.04061 0.4259,0.85183 1.7191,1.11679 2.0203,2.0203 0.4259,1.27775 -0.6024,2.83593 0,4.04061 0.3011,0.60234 1.5441,-0.47619 2.0203,0 1.3724,1.37245 -2.0657,4.0179 2.0203,6.06092 0.801,0.40051 5.6479,-0.41303 6.0609,0 0.4762,0.47619 -0.4762,1.54411 0,2.0203 0.4762,0.47619 1.5441,-0.47619 2.0203,0 0.4762,0.47619 0,1.34687 0,2.02031 0,3.36717 0,6.73435 0,10.10152 0,0.67344 0.4762,1.54412 0,2.02031 -0.4762,0.47619 -2.0203,-0.67344 -2.0203,0 0,0.95238 1.5944,1.16847 2.0203,2.0203 0.3012,0.60234 -0.3012,1.41797 0,2.02031 0.2682,0.53641 5.5245,5.79271 6.0609,6.06091 0.6024,0.30117 1.5441,-0.47619 2.0203,0 0.4762,0.47619 -0.4762,1.54412 0,2.02031 0.4762,0.47619 1.5441,-0.47619 2.0203,0 0.4762,0.47619 -0.4762,1.54411 0,2.0203 0.4762,0.47619 1.5441,-0.47619 2.0203,0 0.4762,0.47619 -0.4762,1.54412 0,2.02031 0.4762,0.47619 1.3469,0 2.0203,0 0.9099,0 5.4461,0.30742 6.061,0 0.8518,-0.42592 1.1684,-1.59439 2.0203,-2.02031 5.3874,0 -0.6735,0.67344 2.0203,-2.0203 2.6937,-2.69374 2.0203,3.36717 2.0203,-2.02031 0,-0.67343 0,-1.34687 0,-2.0203 0,-0.67344 -0.4762,-1.54412 0,-2.02031 0.4762,-0.47619 2.0203,-0.67343 2.0203,0 0,0.67344 -1.5441,0.47619 -2.0203,0 -0.092,-0.0916 0,-9.14895 0,-10.10152 0,-0.48998 -0.065,-5.99595 0,-6.06092 0.4762,-0.47619 1.5441,0.47619 2.0203,0 0.065,-0.065 0,-5.57094 0,-6.06091 0,-1.34687 0,-2.69374 0,-4.04061 0,-0.67344 -0.6735,-2.02031 0,-2.02031 0.6734,0 0,2.69374 0,2.02031 0,-1.34687 0.6023,-2.83594 0,-4.04061 -0.3012,-0.60234 -1.5441,0.47619 -2.0203,0 0,-5.38748 0.6734,0.67343 -2.0203,-2.02031 -0.9524,-0.95238 0.9523,-3.08823 0,-4.04061 -0.4762,-0.47619 -1.5441,0.47619 -2.0203,0 -0.4762,-0.47619 0.4762,-1.54411 0,-2.0203 -0.4762,-0.47619 -1.5442,0.47619 -2.0203,0 -0.4762,-0.47619 0.3011,-1.41797 0,-2.02031 -0.426,-0.85183 -1.5944,-1.16847 -2.0203,-2.0203 -0.3012,-0.60234 0.4761,-1.54412 0,-2.02031 -0.4762,-0.47619 -1.5442,0.47619 -2.0204,0 -0.9523,-0.95238 1.3469,-4.04061 0,-4.04061 -0.9523,0 -1.0679,2.02031 -2.0203,2.02031 -0.6734,0 0,-1.34687 0,-2.02031 0,-5.38748 0.6735,0.67344 -2.0203,-2.0203 -0.4762,-0.4762 0.4762,-1.54412 0,-2.02031 -0.9523,-0.95238 -3.0882,0.95238 -4.0406,0 -0.4762,-0.47619 0.4762,-1.54411 0,-2.02031 -0.9524,-0.95238 -3.0882,0.95239 -4.0406,0 -0.4762,-0.47619 0.4762,-1.54411 0,-2.0203 -0.4762,-0.47619 -1.3469,0 -2.0203,0 -3.3672,0 -6.7343,0 -18.1827,6.06092 z"
           id="path6042"
           style="fill:url(#linearGradient6658);fill-opacity:1;stroke:#552200;stroke-width:2.9000001;stroke-linecap:butt;stroke-linejoin:miter;stroke-miterlimit:4;stroke-opacity:0.6197183;stroke-dasharray:none" />
        <path
           d="m 1206.1221,870.53472 c 2.6938,0 9.986,-1.90476 8.0813,0 -2.4281,2.42811 -6.7144,1.45579 -10.1016,2.02031 -0.8074,0.13457 -3.8793,-0.16128 -4.0406,0 -0.4762,0.47619 0.4762,1.54411 0,2.0203 -0.9524,0.95239 -2.8359,-0.60233 -4.0406,0 -0.8518,0.42592 -1.1685,1.59439 -2.0203,2.02031 -0.6023,0.30117 -1.5441,-0.47619 -2.0203,0 -0.4762,0.47619 0.4762,1.54411 0,2.0203 -0.4762,0.4762 -1.5441,-0.47619 -2.0203,0 -0.4762,0.4762 0.4762,1.54412 0,2.02031 -0.4762,0.47619 -1.5441,-0.47619 -2.0203,0 -0.065,0.065 0,5.57094 0,6.06092 0,0.67343 -0.4762,1.54411 0,2.0203 0.4762,0.47619 1.5441,-0.47619 2.0203,0 0.4762,0.47619 -0.4762,1.54411 0,2.02031 0.4762,0.47619 1.5441,-0.4762 2.0203,0 1.0102,1.01015 -1.0101,5.05076 0,6.06091 0.8979,0.89791 3.8161,-1.57135 2.0203,2.02031 -0.4259,0.85183 -1.5944,1.16847 -2.0203,2.0203 -0.3012,0.60234 0.4762,1.54412 0,2.02031 -0.4762,0.47619 -1.418,-0.30117 -2.0203,0 -0.8518,0.42591 -1.1168,1.71913 -2.0203,2.0203 -1.2778,0.42592 -2.8359,-0.60234 -4.0406,0 -0.6024,0.30117 0.4762,1.54412 0,2.02031 -0.4762,0.47619 -2.6938,0 -2.0203,0 2.0203,0 4.0406,0 6.0609,0 0.6734,0 1.5441,-0.47619 2.0203,0 0.4762,0.47619 -0.6734,2.0203 0,2.0203 1.5058,0 2.5348,-2.0203 4.0406,-2.0203 2.6937,0 -3.3672,4.71404 2.0203,2.0203 0.8518,-0.42592 1.1685,-1.59439 2.0203,-2.0203 1.096,-0.548 7.5284,0.5528 8.0812,0 0.4762,-0.47619 -0.4762,-1.54412 0,-2.02031 0.4762,-0.47619 1.5442,0.47619 2.0203,0 0.4762,-0.47619 -0.6734,-2.0203 0,-2.0203 0.789,0 2.2754,3.78559 4.0407,2.0203 0.4761,-0.47619 -0.4762,-1.54411 0,-2.0203 0.4761,-0.47619 1.5441,0.47619 2.0203,0 0.4761,-0.47619 -0.4762,-1.54412 0,-2.02031 0.4761,-0.47619 2.0203,-0.67343 2.0203,0 0,1.54713 -7.3242,5.30389 0,-2.0203 0.4762,-0.47619 1.5441,0.47619 2.0203,0 0.4762,-0.47619 0,-1.34687 0,-2.02031 0,-4.71404 0,-9.42809 0,-14.14213 0,-0.67344 0,-1.34687 0,-2.02031 0,-0.67344 0.4762,-1.54411 0,-2.02031 -0.4762,-0.47619 -1.7192,0.60234 -2.0203,0 -1.2418,-2.4835 -4.7141,-7.40778 -2.0203,-8.08122 2.6937,-0.67343 1.3468,5.38748 -8.0813,0 z"
           id="path6044"
           style="fill:url(#linearGradient6660);fill-opacity:1;stroke:#552200;stroke-width:2.9000001;stroke-linecap:butt;stroke-linejoin:miter;stroke-miterlimit:4;stroke-opacity:0.6197183;stroke-dasharray:none" />
      </g>
    </g>
  </g>
</svg>
